# xmcd CD database file
#
# Track frame offsets:
#	150
#	21721
#	37977
#	47586
#	71239
#	90973
#	107210
#	136394
#	148347
#	170959
#
# Disc length: 2447 seconds
#
# Revision: 0
# Processed by: cddbd v1.5.2PL0 Copyright (c) Steve Scherf et al.
# Submitted via: CDex 1.51
#
DISCID=97098d0a
DTITLE=Marco di Meo - Grated Cheese
DYEAR=2006
DGENRE=Jazz
TTITLE0=Extender
TTITLE1=Ramadan Days
TTITLE2=Manha de Carnaval
TTITLE3=Dissolute
TTITLE4=Keplero
TTITLE5=Hope
TTITLE6=Lucignolo
TTITLE7=Tangenziale Confidenziale
TTITLE8=Road Flanked With Guitars
TTITLE9=Grated Cheese
EXTD=YEAR: 2006
EXTT0=
EXTT1=
EXTT2=
EXTT3=
EXTT4=
EXTT5=
EXTT6=
EXTT7=
EXTT8=
EXTT9=
PLAYORDER=
